<svg xmlns="http://www.w3.org/2000/svg" xmlns:xlink="http://www.w3.org/1999/xlink" viewBox="0 0 387.21 123.29"><defs><style>.cls-1{fill:none;}.cls-2{fill:#ffed00;}.cls-3{clip-path:url(#clip-path);}</style><clipPath id="clip-path" transform="translate(0 0)"><rect class="cls-1" width="387.21" height="123.29"/></clipPath></defs><g id="Layer_2" data-name="Layer 2"><g id="Layer_1-2" data-name="Layer 1"><rect class="cls-2" x="3.01" y="13.99" width="381.2" height="95.3" transform="translate(-4.04 14.52) rotate(-4.25)"/><g class="cls-3"><path d="M229.71,81.19,230.52,71h-1.26l-.45,1.71c-1.16,4.34-3.79,6.51-9,6.51h-1.61c-3.53,0-4.39-1.32-4.39-4.9V50.48c0-2.12.86-3.33,2.62-3.33h1.72V45.89H203.94v1.26h1.72c1.76,0,2.62,1.21,2.62,3.33V76.6c0,2.12-.86,3.33-2.62,3.33h-1.72v1.26ZM250,49.25a3.58,3.58,0,1,0-3.57,3.57A3.57,3.57,0,0,0,250,49.25m14.3,25.54h-1.16c-.35,2.22-1.26,4-2.83,4-1.05,0-1.51-1-1.51-3V61.32c0-3.53-2.17-5.64-4.94-5.64-4,0-5.75,3.22-5.85,6.7h1.16c.35-2.27,1.26-4,2.82-4,1.06,0,1.52,1,1.52,3v6.61c0,6.1-2.52,11.19-6.26,11.19-2.37,0-3.78-2.16-3.78-5.9V61.32c0-3.53-2.17-5.64-4.94-5.64-4,0-5.75,3.22-5.85,6.7h1.16c.35-2.27,1.26-4,2.82-4,1.06,0,1.52,1,1.52,3V74.13c0,4.74,2.87,7.67,7.46,7.67,4.19,0,6.86-2.68,7.87-6.66v.71c0,3.53,2.16,5.65,4.94,5.65,4,0,5.75-3.23,5.85-6.71m20.57-.91h-1.16c-.4,2.72-2.32,4.94-4.39,4.94-1.81,0-3-1.56-3-4.33V58.8h5.95v-2h-5.95V49.72a3,3,0,0,0-1.31-.3c-1.62,0-2.83,1.06-3.43,3.18l-.35,1.21c-.61,2.17-1.16,3-3,3h-1.26v2H271V74.49c0,4.63,3.18,7,6.56,7,4.44,0,7-3.23,7.31-7.62m22-25.72c0-2.32-2.42-4.08-6.56-4.08-5.8,0-9.07,3.78-9.07,9.33,0,2.57-.51,3.37-2.42,3.37h-2.63v2h5.15c.2,8.37.8,17.7.8,25,0,4.8-1.16,6.21-2.72,6.21-2.32,0-4-2.83-4.59-4.54a3.15,3.15,0,0,0-3.13,3.13c0,2.21,2.07,4,5.45,4,6.66,0,9.94-6.91,9.94-16.29,0-5.35-.41-11.4-.66-17.45h5.9l.71-2h-6.66c-.05-1.76-.1-3.53-.1-5.24,0-3.68.86-5.45,2.67-5.45,2.12,0,3.94,3.08,4.49,5,1.82,0,3.43-1.06,3.43-2.93m5.6,17.15c.3-5.15,1.81-8.22,4.89-8.22,2.42,0,3.88,2.62,3.88,6.5v1.72ZM328.91,73h-1.26c-1.16,3.43-3.48,6.1-7.37,6.1-6.55,0-7.91-6.9-7.91-12.1h13c.85,0,1.46-1.36,1.46-2.87,0-5.45-3.88-8.78-9.43-8.78-6.25,0-11.05,4.89-11.05,13,0,9,5.4,13.42,11.75,13.42s10.09-4.09,10.85-8.78m34.24,1.77H362c-.35,2.22-1.26,4-2.83,4-1.05,0-1.51-1-1.51-3V63c0-4.74-2.87-7.67-7.46-7.67-4.19,0-6.86,2.68-7.87,6.66v-.71c0-3.53-2.17-5.64-4.94-5.64-4,0-5.75,3.22-5.85,6.7h1.16c.35-2.27,1.26-4,2.82-4,1.06,0,1.52,1,1.52,3V75.85c0,3.53,2.16,5.65,4.94,5.65,4,0,5.75-3.23,5.85-6.71h-1.16c-.35,2.22-1.26,4-2.83,4-1.06,0-1.51-1-1.51-3V69.24c0-6.1,2.52-11.19,6.25-11.19,2.37,0,3.79,2.16,3.79,5.9v11.9c0,3.53,2.17,5.65,4.94,5.65,4,0,5.75-3.23,5.85-6.71" transform="translate(0 0)"/><path d="M200.3,75.09c-.05-2.08-.08-3.64-.08-4.67,0-.87,0-2.18.08-3.93s.07-3,.07-3.92a5.68,5.68,0,0,0-2.31-4.86,8.75,8.75,0,0,0-5.3-1.5,9.51,9.51,0,0,0-4.46,1.21,10.37,10.37,0,0,0-3.59,3,5.23,5.23,0,0,0-2.59-3.18,8,8,0,0,0-4-1,9.52,9.52,0,0,0-4.12.91,23.93,23.93,0,0,0-3.49,2.37,2.64,2.64,0,0,1-.57.34c-.11,0-.18-.57-.2-1.71s-.18-1.71-.49-1.71a7.38,7.38,0,0,0-1.94.34c-1.14.32-1.78.49-1.95.52s-1,.11-2.19.22a8.36,8.36,0,0,0-2,.37.57.57,0,0,0-.35.57,3.25,3.25,0,0,0,.05.44,79.93,79.93,0,0,1,.59,9.09c0,1.31,0,3.28,0,5.9s0,4.58,0,5.89a1.45,1.45,0,0,0,.11.74,1.33,1.33,0,0,0,.71.17c1.31.1,2.48.15,3.52.15,1.59,0,2.75,0,3.49-.1a1.49,1.49,0,0,0,.77-.19,1.34,1.34,0,0,0,.14-.77c0-1.47,0-3.7,0-6.67s0-5.2,0-6.7q0-1,1.38-1.92a4.29,4.29,0,0,1,2.34-.84q2.69,0,2.69,3.53c0,.62,0,1.55.05,2.78s0,2.15,0,2.76c0,.78,0,2-.07,3.49s-.07,2.7-.07,3.47.23,1,.69,1h7.46c.47,0,.71-.27.71-.81,0-.79,0-2-.07-3.53s-.08-2.74-.08-3.51c0-3.35,0-5.37.1-6.06a3.27,3.27,0,0,1,1.27-2.15,3.56,3.56,0,0,1,2.3-1c1.76,0,2.69,1,2.79,2.93.06,1.22.09,3.26.09,6.14,0,.75,0,1.88-.07,3.38s-.07,2.63-.07,3.39.24,1.11.74,1.2a26.5,26.5,0,0,0,3.74.15c1.94,0,3.15,0,3.64-.1s.74-.38.74-1c0-1,0-2.59-.07-4.66M145.6,72a4.51,4.51,0,0,1-3.42,1.37,4.46,4.46,0,0,1-3.35-1.43,4.74,4.74,0,0,1-1.38-3.42A4.79,4.79,0,0,1,138.76,65a5,5,0,0,1,6.85,0,5.21,5.21,0,0,1,0,6.94m10.05-13.06a4,4,0,0,0,.07-.51c0-.17-.12-.3-.37-.4a35.07,35.07,0,0,0-3.49-.84,22.06,22.06,0,0,0-3.47-.51c-.27,0-.49.39-.68,1.19S147.35,59,147.2,59s-.1,0-.17-.12a7.52,7.52,0,0,0-6.11-2.71,11.11,11.11,0,0,0-8.76,3.6A13.3,13.3,0,0,0,129.08,69a12.72,12.72,0,0,0,3,8.47A9.89,9.89,0,0,0,140,81.23a8.26,8.26,0,0,0,5.91-2.78,2.77,2.77,0,0,1,.52-.42c.15,0,.27.5.38,1.44s.32,1.42.63,1.42q3.95,0,7-.23c.58,0,.86-.4.86-1,0-1.25-.07-3.12-.22-5.62s-.22-4.37-.22-5.64a53.71,53.71,0,0,1,.79-9.43M125,47l0-.45c0-.34-.15-.51-.56-.51h-8.79c-.43,0-.64.18-.64.54a2.61,2.61,0,0,0,0,.42,76.07,76.07,0,0,1,.62,9.38c0-.61,0,2.54,0,9.43,0,1.45,0,3.62,0,6.54s0,5.1,0,6.56V80a.72.72,0,0,0,.61.66,20.33,20.33,0,0,0,3.77.2,25.49,25.49,0,0,0,4-.2c.41-.06.62-.27.62-.61s0-1.11-.08-2-.07-1.56-.07-1.94c0-2.4-.05-5.84-.05-10.32q0-8.18.64-18.81m-28.6,22.7a7.56,7.56,0,0,1-2.83-.29c-.38-.28-.56-1.1-.56-2.47a3.29,3.29,0,0,1,1.82-2.63A5.79,5.79,0,0,1,98,63.21q3.38,0,3.37,3c0,2.37-1.66,3.55-5,3.55m12-11.55a10.93,10.93,0,0,0-6.85-2,10.39,10.39,0,0,0-7.78,3.33,4.11,4.11,0,0,1-.59.54c-.12,0-.17-.26-.17-.71q0-2.91.22-8.2c0-.46.08-1.32.2-2.57.09-1.06.14-1.91.14-2.53s-.13-.72-.39-.72a17.22,17.22,0,0,0-2.37.23c-1.13.16-1.92.26-2.38.29-1.74,0-3,.05-3.92.05-.44,0-.66.22-.66.62q0,3,.22,9c.15,4,.22,7,.22,9.06V79.7c0,.59.22.93.66,1a30,30,0,0,0,3.48.1c2.3,0,3.59,0,3.89,0A.72.72,0,0,0,93,80c0-.54,0-1.37,0-2.49s0-1.93,0-2.43a28,28,0,0,1,4.43.34c1.4,2,2.42,3.63,3.08,4.73.26.43,1.23.64,2.91.64q6.52,0,6.52-.67a35.71,35.71,0,0,0-2.29-3.21,15.92,15.92,0,0,1-2.29-3.48c0-.19.17-.36.5-.52q5.34-2.83,5.34-8.28a7.68,7.68,0,0,0-2.78-6.4m-38,8a43,43,0,0,1-5.66.57q-.69,0-.69-.66A4.53,4.53,0,0,1,65,63.25,3.14,3.14,0,0,1,67.55,62a3.42,3.42,0,0,1,2.59,1.16,3.8,3.8,0,0,1,1.08,2.68q0,.27-.81.39m6.13-7.09a10.7,10.7,0,0,0-8-3.44,11.58,11.58,0,0,0-9,3.74,13.24,13.24,0,0,0-3.3,9.28A12.16,12.16,0,0,0,59.9,78a13.14,13.14,0,0,0,9.45,3.42q6.33,0,9.33-3.23c.25-.26.37-.45.37-.56a9.19,9.19,0,0,0-1.21-2.88,7.52,7.52,0,0,0-1.74-2.52l-1.87,1.19a9.41,9.41,0,0,1-4.41,1.18,7.39,7.39,0,0,1-3.25-.69,3.5,3.5,0,0,1-2.09-2.44c3.84-.29,6.73-.55,8.66-.76q4.83-.49,5.1-.54c1.07-.23,1.6-1.18,1.6-2.84a11.47,11.47,0,0,0-3.3-8.2M37.68,62.61a21.24,21.24,0,0,1-3.15-.22c-.53-.08-.79-.16-.79-.24,0-.36,0-.91,0-1.65s0-1.3,0-1.68A42,42,0,0,1,33.84,54q.15-.72,2.49-.72a9.83,9.83,0,0,1,4.77.89c1.32.77,2,2.16,2,4.16,0,2.86-1.79,4.28-5.39,4.28m12.73,11q-3-6.19-3-6.18c0-.23.19-.47.56-.74a11.59,11.59,0,0,0,3.82-4.16,13.33,13.33,0,0,0,1-5.74,9.48,9.48,0,0,0-4-8.24A15.32,15.32,0,0,0,39.65,46c-1.8,0-4.23,0-7.26.1q-6.72.15-7.53.29c-.53.1-.79.29-.77.57l0,.34c.32,3.9.47,9.31.47,16.26,0,1.82-.08,4.55-.26,8.2s-.26,6.37-.26,8.17c0,.41.24.67.72.76a32.13,32.13,0,0,0,4.24.15c2.05,0,3.56,0,4.53-.1l.68,0c.15,0,.23-.21.23-.49,0-1.11-.11-2.78-.31-5s-.31-3.88-.31-5c0-.84.12-1.26.37-1.26,2.18,0,3,0,2.54,0a2.17,2.17,0,0,1,2,1.06q2,4.8,3,7.26c.48,1.27.84,2.22,1.09,2.86a1.06,1.06,0,0,0,.34.49,2.94,2.94,0,0,0,.62.12,41.12,41.12,0,0,0,4.38.15,41.87,41.87,0,0,0,4.7-.15c.33,0,.5-.13.5-.24,0-.43-1-2.71-3-6.85" transform="translate(0 0)"/></g></g></g></svg>